<?xml version="1.0" encoding="utf-8"?>
<!-- Generator: Adobe Illustrator 24.2.3, SVG Export Plug-In . SVG Version: 6.00 Build 0)  -->
<svg version="1.1" id="Слой_1" xmlns="http://www.w3.org/2000/svg" xmlns:xlink="http://www.w3.org/1999/xlink" x="0px" y="0px"
	 viewBox="0 0 24 24" style="enable-background:new 0 0 24 24;" xml:space="preserve">
<style type="text/css">
	.st0{fill:#FFFFFF;}
</style>
<path class="st0" d="M10.6,16c0-1.4,0.1-2.3,0.4-2.9c0.2-0.6,0.8-1.2,1.5-1.9c0.7-0.6,1.2-1.1,1.6-1.6c0.4-0.4,0.5-0.9,0.5-1.5
	c0-0.7-0.2-1.3-0.7-1.7c-0.5-0.4-1.1-0.7-1.9-0.7c-0.8,0-1.5,0.3-1.9,0.8S9.3,7.5,9.1,8L6.6,6.9c0.3-1.1,1-2,1.9-2.8S10.6,3,12,3
	c1.8,0,3.1,0.5,4,1.5s1.4,2.1,1.4,3.5c0,0.8-0.2,1.5-0.5,2.1s-0.9,1.3-1.7,2c-0.8,0.8-1.3,1.4-1.5,1.8c-0.2,0.4-0.3,1.1-0.3,2.1
	H10.6z M12,22c-0.6,0-1-0.2-1.4-0.6S10,20.5,10,20c0-0.5,0.2-1,0.6-1.4C11,18.2,11.4,18,12,18s1,0.2,1.4,0.6C13.8,19,14,19.4,14,20
	c0,0.6-0.2,1-0.6,1.4S12.6,22,12,22z"/>
</svg>
